<svg xmlns="http://www.w3.org/2000/svg" width="1600" height="900" viewBox="0 0 1600 900">
  <defs>
    <linearGradient id="g" x1="0" y1="0" x2="1" y2="1">
      <stop offset="0" stop-color="#0b2a14"/>
      <stop offset="0.55" stop-color="#0f3a1c"/>
      <stop offset="1" stop-color="#0a1510"/>
    </linearGradient>
    <radialGradient id="b" cx="70%" cy="35%" r="55%">
      <stop offset="0" stop-color="#22c55e" stop-opacity="0.55"/>
      <stop offset="1" stop-color="#22c55e" stop-opacity="0"/>
    </radialGradient>
  </defs>
  <rect width="1600" height="900" fill="url(#g)"/>
  <rect width="1600" height="900" fill="url(#b)"/>
  <!-- simple mushroom silhouettes -->
  <g opacity="0.65" fill="#d1d5db">
    <path d="M1140 330c0-90-120-150-220-150s-220 60-220 150c0 22 8 42 22 60h396c14-18 22-38 22-60Z"/>
    <rect x="885" y="390" width="70" height="250" rx="28" fill="#e5e7eb"/>
    <path d="M760 420c0-52-70-88-128-88s-128 36-128 88c0 14 5 26 13 37h230c8-11 13-23 13-37Z"/>
    <rect x="602" y="457" width="50" height="180" rx="20" fill="#e5e7eb"/>
    <path d="M1370 430c0-52-70-88-128-88s-128 36-128 88c0 14 5 26 13 37h230c8-11 13-23 13-37Z"/>
    <rect x="1212" y="467" width="50" height="180" rx="20" fill="#e5e7eb"/>
  </g>
</svg>
